<?xml version="1.0" encoding="UTF-8" standalone="no"?>
<!-- Generator: Adobe Illustrator 16.0.4, SVG Export Plug-In . SVG Version: 6.00 Build 0)  -->

<svg
   xmlns:dc="http://purl.org/dc/elements/1.1/"
   xmlns:cc="http://creativecommons.org/ns#"
   xmlns:rdf="http://www.w3.org/1999/02/22-rdf-syntax-ns#"
   xmlns:svg="http://www.w3.org/2000/svg"
   xmlns="http://www.w3.org/2000/svg"
   xmlns:sodipodi="http://sodipodi.sourceforge.net/DTD/sodipodi-0.dtd"
   xmlns:inkscape="http://www.inkscape.org/namespaces/inkscape"
   version="1.1"
   id="Layer_1"
   x="0px"
   y="0px"
   width="165px"
   height="250px"
   viewBox="0 0 165 250"
   enable-background="new 0 0 165 250"
   xml:space="preserve"
   inkscape:version="0.91 r13725"
   sodipodi:docname="polygons.svg"><metadata
     id="metadata17"><rdf:RDF><cc:Work
         rdf:about=""><dc:format>image/svg+xml</dc:format><dc:type
           rdf:resource="http://purl.org/dc/dcmitype/StillImage" /><dc:title></dc:title></cc:Work></rdf:RDF></metadata><defs
     id="defs15" /><sodipodi:namedview
     pagecolor="#ffffff"
     bordercolor="#666666"
     borderopacity="1"
     objecttolerance="10"
     gridtolerance="10"
     guidetolerance="10"
     inkscape:pageopacity="0"
     inkscape:pageshadow="2"
     inkscape:window-width="712"
     inkscape:window-height="480"
     id="namedview13"
     showgrid="false"
     inkscape:zoom="0.944"
     inkscape:cx="82.5"
     inkscape:cy="125"
     inkscape:window-x="0"
     inkscape:window-y="0"
     inkscape:window-maximized="0"
     inkscape:current-layer="Layer_1" /><polygon
     fill="#8c1515"
     stroke="#8c1515"
     stroke-miterlimit="10"
     points="35.87200164794922,1.1236000061035156 35.213951110839844,1.7678260803222656 34.555904388427734,2.41204833984375 33.897857666015625,3.0562705993652344 33.23980712890625,3.7004966735839844 32.58176040649414,4.344718933105469 31.9237117767334,4.988943099975586 31.265663146972656,5.633167266845703 30.607616424560547,6.2773895263671875 29.949567794799805,6.921613693237305 29.29151725769043,7.565837860107422 28.633472442626953,8.210060119628906 27.97542381286621,8.854286193847656 27.317373275756836,9.498510360717773 26.65932846069336,10.142732620239258 26.001277923583984,10.786956787109375 25.343233108520508,11.43117904663086 24.685182571411133,12.075403213500977 24.02713394165039,12.719627380371094 23.36908721923828,13.363851547241211 22.711036682128906,14.008075714111328 22.052989959716797,14.652299880981445 21.394941329956055,15.29652214050293 20.736892700195312,15.94074821472168 20.078845977783203,16.584970474243164 19.42079734802246,17.22919464111328 18.76274871826172,17.8734188079834 18.10470199584961,18.517642974853516 17.446653366088867,19.161865234375 16.788604736328125,19.80609130859375 16.130558013916016,20.450313568115234 15.472509384155273,21.09453582763672 14.814461708068848,21.73876190185547 14.156412124633789,22.382984161376953 13.49836540222168,23.02720832824707 12.840317726135254,23.671432495117188 12.182268142700195,24.315656661987305 11.524219512939453,24.959880828857422 10.866172790527344,25.604103088378906 10.208124160766602,26.248329162597656 9.550074577331543,26.89255142211914 8.89202880859375,27.536773681640625 8.233980178833008,28.180999755859375 7.575930595397949,28.825223922729492 6.917884349822998,29.469446182250977 6.259835243225098,30.113670349121094 5.601786136627197,30.757896423339844 4.943739891052246,31.402116775512695 4.285691261291504,32.04634094238281 3.6276419162750244,32.69056701660156 2.9695956707000732,33.33478927612305 2.311546564102173,33.9790153503418 1.653497576713562,34.62323760986328 1.3140069246292114,35.401390075683594 1.3140069246292114,36.322288513183594 1.3140068054199219,37.243186950683594 1.3140068054199219,38.16407775878906 1.3140068054199219,39.08497619628906 1.3140066862106323,40.00587463378906 1.3140066862106323,40.92677307128906 1.3140066862106323,41.84767150878906 1.3140065670013428,42.76856994628906 1.3140065670013428,43.68946838378906 1.3140065670013428,44.61036682128906 1.3140064477920532,45.53125762939453 1.3140064477920532,46.45215606689453 1.3140064477920532,47.37305450439453 1.3140063285827637,48.2939453125 1.3140063285827637,49.21484375 1.3140063285827637,50.1357421875 1.3140062093734741,51.056640625 1.3140062093734741,51.9775390625 1.3140062093734741,52.8984375 1.3140060901641846,53.8193359375 1.3140060901641846,54.740234375 1.3140060901641846,55.66112518310547 1.314005970954895,56.58202362060547 1.314005970954895,57.50292205810547 1.314005970954895,58.42382049560547 1.3140058517456055,59.34471893310547 1.3140058517456055,60.26561737060547 1.3140058517456055,61.18650817871094 1.314005732536316,62.10740661621094 1.314005732536316,63.02830505371094 1.314005732536316,63.94920349121094 1.3140056133270264,64.87010192871094 1.3140056133270264,65.79100036621094 1.3140056133270264,66.7118911743164 1.3140054941177368,67.6327896118164 1.3140054941177368,68.5536880493164 1.3140054941177368,69.4745864868164 1.3140053749084473,70.3954849243164 1.3140053749084473,71.3163833618164 1.3140053749084473,72.23727416992188 1.3140052556991577,73.15817260742188 1.3140052556991577,74.07907104492188 1.3140052556991577,74.99996948242188 1.3140051364898682,75.92086791992188 1.3140051364898682,76.84176635742188 1.3140051364898682,77.76265716552734 1.3140050172805786,78.68355560302734 1.3140050172805786,79.60445404052734 1.3140050172805786,80.52535247802734 1.314004898071289,81.44625091552734 1.314004898071289,82.36714935302734 1.314004898071289,83.28804016113281 1.3140047788619995,84.20893859863281 1.3140047788619995,85.12983703613281 1.3140047788619995,86.05073547363281 1.31400465965271,86.97163391113281 1.31400465965271,87.89253234863281 1.31400465965271,88.81342315673828 1.3140045404434204,89.73432159423828 1.3140045404434204,90.65522003173828 1.3140045404434204,91.57611846923828 1.3140044212341309,92.49701690673828 1.3140044212341309,93.41791534423828 1.3140044212341309,94.33880615234375 1.3140043020248413,95.25970458984375 1.3140043020248413,96.18060302734375 1.3140043020248413,97.10150146484375 1.3140041828155518,98.02239990234375 1.3140041828155518,98.94329833984375 1.3140041828155518,99.86418914794922 1.3140040636062622,100.78508758544922 1.3140040636062622,101.70598602294922 1.3140040636062622,102.62688446044922 1.3140039443969727,103.54778289794922 1.3140039443969727,104.46867370605469 1.3140039443969727,105.38957214355469 1.314003825187683,106.31047058105469 1.314003825187683,107.23136901855469 1.3140037059783936,108.15226745605469 1.3140037059783936,109.07316589355469 1.3140037059783936,109.99405670166016 1.314003586769104,110.91495513916016 1.314003586769104,111.83585357666016 1.314003586769104,112.75675201416016 1.3140034675598145,113.67765045166016 1.3140034675598145,114.59854125976562 1.3140034675598145,115.51943969726562 1.314003348350525,116.44033813476562 1.314003348350525,117.36123657226562 1.314003348350525,118.28213500976562 1.3140032291412354,119.20303344726562 1.3140032291412354,120.12393188476562 1.3140032291412354,121.04483032226562 1.3140031099319458,121.96572875976562 1.3140031099319458,122.88662719726562 1.3140031099319458,123.80751037597656 1.3140029907226562,124.72840881347656 1.3140029907226562,125.64930725097656 1.8091907501220703,126.36807250976562 2.4536361694335938,127.0259017944336 3.09808349609375,127.68373107910156 3.7425289154052734,128.34156799316406 4.386974334716797,128.9993896484375 5.031421661376953,129.6572265625 5.675867080688477,130.3150634765625 6.320314407348633,130.972900390625 6.964759826660156,131.63072204589844 7.609195709228516,132.28854370117188 8.253641128540039,132.94638061523438 8.898086547851562,133.60421752929688 9.542533874511719,134.2620391845703 10.186979293823242,134.9198760986328 10.831424713134766,135.5777130126953 11.475872039794922,136.23553466796875 12.120317459106445,136.89337158203125 12.764764785766602,137.55120849609375 13.409210205078125,138.2090301513672 14.053655624389648,138.8668670654297 14.698102951049805,139.5247039794922 15.342536926269531,140.18252563476562 15.986984252929688,140.84034729003906 16.63142967224121,141.49818420410156 17.275875091552734,142.15602111816406 17.92032241821289,142.8138427734375 18.564769744873047,143.4716796875 19.209213256835938,144.1295166015625 19.853660583496094,144.787353515625 20.49810791015625,145.44517517089844 21.14255142211914,146.10301208496094 21.786998748779297,146.76084899902344 22.431446075439453,147.41867065429688 23.07588005065918,148.0764923095703 23.720325469970703,148.7343292236328 24.36477279663086,149.3921661376953 25.009218215942383,150.04998779296875 25.65366554260254,150.70782470703125 26.298110961914062,151.36566162109375 26.94255828857422,152.0234832763672 27.587003707885742,152.6813201904297 28.231449127197266,153.3391571044922 28.875896453857422,153.99697875976562 29.520341873168945,154.65481567382812 30.16478729248047,155.31265258789062 30.809223175048828,155.97047424316406 31.495994567871094,156.527587890625 32.416893005371094,156.527587890625 33.337791442871094,156.527587890625 34.258689880371094,156.527587890625 35.179588317871094,156.527587890625 36.100486755371094,156.527587890625 37.021385192871094,156.527587890625 37.942283630371094,156.527587890625 38.863182067871094,156.527587890625 39.784080505371094,156.527587890625 40.704978942871094,156.527587890625 41.62586212158203,156.527587890625 42.54676055908203,156.527587890625 43.46765899658203,156.527587890625 44.38855743408203,156.527587890625 45.071014404296875,156.69564819335938 44.8196907043457,157.58082580566406 44.73366165161133,158.4957275390625 44.884429931640625,159.40101623535156 45.286006927490234,160.2263946533203 45.8896369934082,160.9178924560547 46.66239547729492,161.41326904296875 47.536258697509766,161.69735717773438 48.44995880126953,161.8029022216797 49.37058639526367,161.79547119140625 50.28915786743164,161.7312469482422 51.20508575439453,161.63589477539062 52.11897659301758,161.5226593017578 52.56460952758789,161.9553985595703 51.848045349121094,162.51390075683594 50.991764068603516,162.85079956054688 50.13869857788086,163.19683837890625 49.32551956176758,163.62794494628906 48.57644271850586,164.16212463378906 47.92737579345703,164.81350708007812 47.42231750488281,165.58140563964844 47.101131439208984,166.44183349609375 46.41342544555664,166.72666931152344 45.49252700805664,166.72666931152344 44.57162857055664,166.72666931152344 43.65073013305664,166.72666931152344 42.72983169555664,166.72666931152344 41.80893325805664,166.72666931152344 40.88803482055664,166.72666931152344 39.96713638305664,166.72666931152344 39.04623794555664,166.72666931152344 38.12533950805664,166.72666931152344 37.2044563293457,166.72666931152344 36.2835578918457,166.72666931152344 35.3626594543457,166.72666931152344 34.4417610168457,166.72666931152344 33.5208625793457,166.72666931152344 32.5999641418457,166.72666931152344 31.679065704345703,166.72666931152344 30.758167266845703,166.72666931152344 29.837268829345703,166.72666931152344 28.916370391845703,166.72666931152344 27.995471954345703,166.72666931152344 27.074588775634766,166.72666931152344 26.153690338134766,166.72666931152344 25.232791900634766,166.72666931152344 24.311893463134766,166.72666931152344 23.390995025634766,166.72666931152344 22.470096588134766,166.72666931152344 21.549198150634766,166.72666931152344 20.628299713134766,166.72666931152344 19.707401275634766,166.72666931152344 18.786502838134766,166.72666931152344 17.865604400634766,166.72666931152344 16.944705963134766,166.72666931152344 16.023822784423828,166.72666931152344 15.102924346923828,166.72666931152344 14.182025909423828,166.72666931152344 13.261127471923828,166.72666931152344 12.340229034423828,166.72666931152344 11.419330596923828,166.72666931152344 10.498432159423828,166.72666931152344 9.577533721923828,166.72666931152344 8.656635284423828,166.72666931152344 7.735736846923828,166.72666931152344 6.814853668212891,166.72666931152344 5.893955230712891,166.72666931152344 4.973056793212891,166.72666931152344 4.052158355712891,166.72666931152344 3.1312599182128906,166.72666931152344 2.2103614807128906,166.72666931152344 1.3276307582855225,166.7648468017578 1.3273645639419556,167.6857452392578 1.3270982503890991,168.6066436767578 1.3268320560455322,169.5275421142578 1.3265657424926758,170.4484405517578 1.3262994289398193,171.3693389892578 1.3260332345962524,172.2902374267578 1.325766921043396,173.2111358642578 1.325500726699829,174.1320343017578 1.3252344131469727,175.0529327392578 1.3249682188034058,175.9738311767578 1.3247019052505493,176.8947296142578 1.3244357109069824,177.8156280517578 1.324169397354126,178.7365264892578 1.323903203010559,179.6573944091797 1.3236368894577026,180.5782928466797 1.3233706951141357,181.4991912841797 1.3231043815612793,182.4200897216797 1.3228381872177124,183.3409881591797 1.322571873664856,184.2618865966797 1.322305679321289,185.1827850341797 1.3220393657684326,186.1036834716797 1.3217731714248657,187.0245819091797 1.3215068578720093,187.9454803466797 1.3212406635284424,188.8663787841797 1.320974349975586,189.7872772216797 1.320708155632019,190.7081756591797 1.3204418420791626,191.6290740966797 1.3201756477355957,192.5499725341797 1.3199093341827393,193.4708709716797 1.3196431398391724,194.3917694091797 1.319376826286316,195.3126678466797 1.319110631942749,196.2335662841797 1.3188443183898926,197.1544647216797 1.3185781240463257,198.0753631591797 1.3183118104934692,198.9962615966797 1.3180456161499023,199.9171600341797 1.317779302597046,200.8380584716797 1.317513108253479,201.75892639160156 1.3172467947006226,202.67982482910156 1.3169806003570557,203.60072326660156 1.3167142868041992,204.52162170410156 1.3164480924606323,205.44252014160156 1.3161817789077759,206.36341857910156 1.3159154653549194,207.28431701660156 1.3156492710113525,208.20521545410156 1.315382957458496,209.12611389160156 1.3151167631149292,210.04701232910156 1.3148504495620728,210.96791076660156 1.3145842552185059,211.88880920410156 1.3143179416656494,212.80970764160156 1.6986541748046875,213.5693817138672 2.3555526733398438,214.21478271484375 3.012451171875,214.8601837158203 3.6693496704101562,215.50558471679688 4.3262481689453125,216.15097045898438 4.983146667480469,216.79637145996094 5.640043258666992,217.4417724609375 6.296941757202148,218.08717346191406 6.953840255737305,218.73257446289062 7.610738754272461,219.37796020507812 8.267637252807617,220.0233612060547 8.92451286315918,220.66873168945312 9.581411361694336,221.3141326904297 10.238309860229492,221.95953369140625 10.895208358764648,222.6049346923828 11.552106857299805,223.25033569335938 12.209003448486328,223.89573669433594 12.865901947021484,224.54112243652344 13.52280044555664,225.1865234375 14.179698944091797,225.83192443847656 14.836597442626953,226.47732543945312 15.49349594116211,227.1227264404297 16.150394439697266,227.7681121826172 16.80729103088379,228.41351318359375 17.464189529418945,229.0589141845703 18.1210880279541,229.70431518554688 18.777986526489258,230.34971618652344 19.434885025024414,230.9951171875 20.091781616210938,231.6405029296875 20.748680114746094,232.28590393066406 21.40557861328125,232.93130493164062 22.062477111816406,233.5767059326172 22.719375610351562,234.22210693359375 23.37627410888672,234.86749267578125 24.033172607421875,235.5128936767578 24.690048217773438,236.15826416015625 25.346946716308594,236.8036651611328 26.00384521484375,237.44906616210938 26.660743713378906,238.09446716308594 27.317642211914062,238.7398681640625 27.974538803100586,239.38526916503906 28.631437301635742,240.03065490722656 29.2883358001709,240.67605590820312 29.945234298706055,241.3214569091797 30.60213279724121,241.96685791015625 31.259029388427734,242.6122589111328 31.91592788696289,243.2576446533203 32.57282638549805,243.90304565429688 33.2297248840332,244.54844665527344 33.88662338256836,245.19384765625 34.543521881103516,245.83924865722656 35.20042037963867,246.48463439941406 35.85731887817383,247.13003540039062 36.772239685058594,247.14466857910156 37.693138122558594,247.14466857910156 38.614036560058594,247.14466857910156 39.534934997558594,247.14466857910156 40.455833435058594,247.14466857910156 41.37670135498047,247.14466857910156 42.29759979248047,247.14466857910156 43.21849822998047,247.14466857910156 44.13939666748047,247.14466857910156 45.06029510498047,247.14466857910156 45.98119354248047,247.14466857910156 46.90209197998047,247.14466857910156 47.82299041748047,247.14466857910156 48.74388885498047,247.14466857910156 49.66478729248047,247.14466857910156 50.58568572998047,247.14466857910156 51.50658416748047,247.14466857910156 52.42748260498047,247.14466857910156 53.34838104248047,247.14466857910156 54.26927947998047,247.14466857910156 55.19017791748047,247.14466857910156 56.11107635498047,247.14466857910156 57.03197479248047,247.14466857910156 57.95287322998047,247.14466857910156 58.87377166748047,247.14466857910156 59.79467010498047,247.14466857910156 60.71556854248047,247.14466857910156 61.63646697998047,247.14466857910156 62.55736541748047,247.14466857910156 63.478233337402344,247.14466857910156 64.39913177490234,247.14466857910156 65.32003021240234,247.14466857910156 66.24092864990234,247.14466857910156 67.16182708740234,247.14466857910156 68.08272552490234,247.14466857910156 69.00362396240234,247.14466857910156 69.92452239990234,247.14466857910156 70.84542083740234,247.14466857910156 71.76631927490234,247.14466857910156 72.68721771240234,247.14466857910156 73.60811614990234,247.14466857910156 74.52901458740234,247.14466857910156 75.44991302490234,247.14466857910156 76.37081146240234,247.14466857910156 77.29170989990234,247.14466857910156 78.21260833740234,247.14466857910156 79.13350677490234,247.14466857910156 80.05440521240234,247.14466857910156 80.97530364990234,247.14466857910156 81.89620208740234,247.14466857910156 82.81710052490234,247.14466857910156 83.73799896240234,247.14466857910156 84.65889739990234,247.14466857910156 85.57976531982422,247.14466857910156 86.50066375732422,247.14466857910156 87.42156219482422,247.14466857910156 88.34246063232422,247.14466857910156 89.26335906982422,247.14466857910156 90.18425750732422,247.14466857910156 91.10515594482422,247.14466857910156 92.02605438232422,247.14466857910156 92.94695281982422,247.14466857910156 93.86785125732422,247.14466857910156 94.78874969482422,247.14466857910156 95.70964813232422,247.14466857910156 96.63054656982422,247.14466857910156 97.55144500732422,247.14466857910156 98.47234344482422,247.14466857910156 99.39324188232422,247.14466857910156 100.31414031982422,247.14466857910156 101.23503875732422,247.14466857910156 102.15593719482422,247.14466857910156 103.07683563232422,247.14466857910156 103.99773406982422,247.14466857910156 104.91863250732422,247.14466857910156 105.83953094482422,247.14466857910156 106.76042938232422,247.14466857910156 107.6812973022461,247.14466857910156 108.6021957397461,247.14466857910156 109.5230941772461,247.14466857910156 110.4439926147461,247.14466857910156 111.3648910522461,247.14466857910156 112.2857894897461,247.14466857910156 113.2066879272461,247.14466857910156 114.1275863647461,247.14466857910156 115.0484848022461,247.14466857910156 115.9693832397461,247.14466857910156 116.8902816772461,247.14466857910156 117.8111801147461,247.14466857910156 118.7320785522461,247.14466857910156 119.6529769897461,247.14466857910156 120.5738754272461,247.14466857910156 121.4947738647461,247.14466857910156 122.4156723022461,247.14466857910156 123.3365707397461,247.14466857910156 124.2574691772461,247.14466857910156 125.1783676147461,247.14466857910156 126.0992660522461,247.14466857910156 126.94548797607422,246.9619140625 127.60284423828125,246.3169708251953 128.26019287109375,245.6720428466797 128.9175262451172,245.02713012695312 129.57489013671875,244.3822021484375 130.23223876953125,243.7372589111328 130.88958740234375,243.0923309326172 131.5469512939453,242.44740295410156 132.2042999267578,241.80245971679688 132.86166381835938,241.15753173828125 133.51901245117188,240.51260375976562 134.17636108398438,239.86766052246094 134.83372497558594,239.2227325439453 135.49107360839844,238.57778930664062 136.14842224121094,237.932861328125 136.8057861328125,237.28793334960938 137.463134765625,236.64300537109375 138.1204833984375,235.99806213378906 138.77784729003906,235.35313415527344 139.43519592285156,234.70819091796875 140.09255981445312,234.06326293945312 140.74990844726562,233.4183349609375 141.40725708007812,232.7733917236328 142.0646209716797,232.1284637451172 142.7219696044922,231.48353576660156 143.37933349609375,230.83859252929688 144.03665161132812,230.1936798095703 144.6940155029297,229.5487518310547 145.3513641357422,228.90382385253906 146.00872802734375,228.25888061523438 146.66607666015625,227.61395263671875 147.32342529296875,226.96902465820312 147.9807891845703,226.32408142089844 148.6381378173828,225.6791534423828 149.29550170898438,225.03421020507812 149.95285034179688,224.3892822265625 150.61019897460938,223.74435424804688 151.26756286621094,223.0994110107422 151.92491149902344,222.45448303222656 152.58226013183594,221.80955505371094 153.2396240234375,221.16461181640625 153.89697265625,220.51968383789062 154.55433654785156,219.874755859375 155.21168518066406,219.2298126220703 155.86903381347656,218.5848846435547 156.52639770507812,217.93995666503906 157.18374633789062,217.29501342773438 157.84109497070312,216.65008544921875 158.4984588623047,216.00515747070312 159.1558074951172,215.36021423339844 159.81314086914062,214.71530151367188 160.4705047607422,214.07037353515625 161.1278533935547,213.42544555664062 161.31719970703125,212.58401489257812 161.31719970703125,211.66311645507812 161.31719970703125,210.74221801757812 161.31719970703125,209.82131958007812 161.31719970703125,208.90042114257812 161.31719970703125,207.97952270507812 161.31719970703125,207.05862426757812 161.31719970703125,206.13772583007812 161.31719970703125,205.21682739257812 161.31719970703125,204.29592895507812 161.31719970703125,203.37503051757812 161.31719970703125,202.45413208007812 161.31719970703125,201.53323364257812 161.31719970703125,200.61233520507812 161.31719970703125,199.69143676757812 161.31719970703125,198.77053833007812 161.31719970703125,197.84963989257812 161.31719970703125,196.92877197265625 161.31719970703125,196.00787353515625 161.31719970703125,195.08697509765625 161.31719970703125,194.16607666015625 161.31719970703125,193.24517822265625 161.31719970703125,192.32427978515625 161.31719970703125,191.40338134765625 161.31719970703125,190.48248291015625 161.31719970703125,189.56158447265625 161.31719970703125,188.64068603515625 161.31719970703125,187.71978759765625 161.31719970703125,186.79888916015625 161.31719970703125,185.87799072265625 161.31719970703125,184.95709228515625 161.31719970703125,184.03619384765625 161.31719970703125,183.11529541015625 161.31719970703125,182.19439697265625 161.31719970703125,181.27349853515625 161.31719970703125,180.35260009765625 161.31719970703125,179.43170166015625 161.31719970703125,178.51080322265625 161.31719970703125,177.58990478515625 161.31719970703125,176.66900634765625 161.31719970703125,175.74810791015625 161.31719970703125,174.82720947265625 161.31719970703125,173.90631103515625 161.31719970703125,172.98541259765625 161.31719970703125,172.06451416015625 161.31719970703125,171.14361572265625 161.31719970703125,170.22271728515625 161.31719970703125,169.30181884765625 161.31719970703125,168.38092041015625 161.31719970703125,167.46002197265625 161.31719970703125,166.53912353515625 161.31719970703125,165.61822509765625 161.31719970703125,164.69732666015625 161.31719970703125,163.77642822265625 161.31719970703125,162.85552978515625 161.31719970703125,161.93463134765625 161.31719970703125,161.01373291015625 161.31719970703125,160.0928955078125 161.31719970703125,159.1719970703125 161.31719970703125,158.2510986328125 161.31719970703125,157.3302001953125 161.31719970703125,156.4093017578125 161.31719970703125,155.4884033203125 161.31719970703125,154.5675048828125 161.31719970703125,153.6466064453125 161.31719970703125,152.7257080078125 161.31719970703125,151.8048095703125 161.31719970703125,150.8839111328125 161.31719970703125,149.9630126953125 161.31719970703125,149.0421142578125 161.31719970703125,148.1212158203125 161.31719970703125,147.2003173828125 161.31719970703125,146.2794189453125 161.31719970703125,145.3585205078125 161.31719970703125,144.4376220703125 161.31719970703125,143.5167236328125 161.31719970703125,142.5958251953125 161.31719970703125,141.6749267578125 161.31719970703125,140.7540283203125 161.31719970703125,139.8331298828125 161.31719970703125,138.9122314453125 161.31719970703125,137.9913330078125 161.31719970703125,137.0704345703125 161.31719970703125,136.1495361328125 161.31719970703125,135.2286376953125 161.31719970703125,134.3077392578125 161.31719970703125,133.3868408203125 161.31719970703125,132.4659423828125 161.31719970703125,131.5450439453125 161.31719970703125,130.6241455078125 161.31719970703125,129.7032470703125 161.31719970703125,128.7823486328125 161.31719970703125,127.86145782470703 161.31719970703125,126.94055938720703 161.21705627441406,126.06062316894531 160.57203674316406,125.40335083007812 159.92701721191406,124.74607849121094 159.28199768066406,124.08879852294922 158.63699340820312,123.43152618408203 157.99197387695312,122.77425384521484 157.34695434570312,122.11698150634766 156.70193481445312,121.45970153808594 156.0569305419922,120.80242919921875 155.4119110107422,120.14515686035156 154.76693725585938,119.48793029785156 154.12191772460938,118.83065795898438 153.47689819335938,118.17338562011719 152.83189392089844,117.51610565185547 152.18687438964844,116.85883331298828 151.54185485839844,116.2015609741211 150.8968505859375,115.5442886352539 150.2518310546875,114.88700866699219 149.6068115234375,114.229736328125 148.9617919921875,113.57246398925781 148.3167724609375,112.91519165039062 147.67176818847656,112.25791931152344 147.02674865722656,111.60064697265625 146.38172912597656,110.94337463378906 145.73670959472656,110.28609466552734 145.09170532226562,109.62882232666016 144.44668579101562,108.97154998779297 143.80166625976562,108.31427764892578 143.15664672851562,107.6570053100586 142.5116424560547,106.99972534179688 141.8666229248047,106.34245300292969 141.2216033935547,105.6851806640625 140.5765838623047,105.02790832519531 139.93157958984375,104.37063598632812 139.28656005859375,103.71336364746094 138.64154052734375,103.05609130859375 137.99652099609375,102.39881134033203 137.3515167236328,101.74153900146484 136.7064971923828,101.08426666259766 136.0614776611328,100.42699432373047 135.4164581298828,99.76972198486328 134.77145385742188,99.11244201660156 134.12643432617188,98.45516967773438 133.48141479492188,97.79789733886719 132.83639526367188,97.140625 132.19139099121094,96.48335266113281 131.54637145996094,95.82608032226562 130.74362182617188,95.54466247558594 129.82272338867188,95.54466247558594 128.90182495117188,95.54466247558594 127.98092651367188,95.54466247558594 127.06002807617188,95.54466247558594 126.13912963867188,95.54466247558594 125.21823120117188,95.54466247558594 124.29733276367188,95.54466247558594 123.37643432617188,95.54466247558594 122.45553588867188,95.54466247558594 121.53463745117188,95.54466247558594 120.61380004882812,95.54466247558594 119.69290161132812,95.54466247558594 118.77200317382812,95.54466247558594 117.85110473632812,95.54466247558594 116.93020629882812,95.54466247558594 116.00930786132812,95.54466247558594 115.08840942382812,95.54466247558594 114.16751098632812,95.54466247558594 113.24661254882812,95.54466247558594 112.32571411132812,95.54466247558594 111.40481567382812,95.54466247558594 110.48391723632812,95.54466247558594 109.56301879882812,95.54466247558594 108.64212036132812,95.54466247558594 107.72122192382812,95.54466247558594 106.80032348632812,95.54466247558594 105.87942504882812,95.54466247558594 105.07405853271484,95.1239013671875 104.28755950927734,94.64488983154297 103.50516510009766,94.15914154052734 102.72779846191406,93.66551971435547 101.951416015625,93.17023468017578 101.18636322021484,92.65799713134766 100.45823669433594,92.09442901611328 99.7519302368164,91.50360107421875 99.07842254638672,90.87596893310547 98.44599914550781,90.20670318603516 97.82603454589844,89.52584075927734 97.22933959960938,88.824462890625 97.34893798828125,88.56266784667969 98.24132537841797,88.78981018066406 99.13978576660156,88.9917984008789 100.04301452636719,89.17102813720703 100.9501953125,89.32933807373047 101.86055755615234,89.46822357177734 102.77349853515625,89.58893585205078 103.68852233886719,89.69249725341797 104.6053237915039,89.77953338623047 105.5234375,89.85050964355469 106.44265747070312,89.90536499023438 107.36277770996094,89.94175720214844 108.2821044921875,89.98724365234375 109.18716430664062,90.14924621582031 110.03297424316406,90.51145935058594 110.8952407836914,90.8348159790039 111.79769897460938,90.98148345947266 112.71210479736328,90.89176177978516 113.58143615722656,90.59407806396484 114.36161041259766,90.10856628417969 115.0151138305664,89.46247863769531 115.51050567626953,88.68839263916016 115.82018280029297,87.82293701171875 115.9540786743164,86.91329956054688 115.91291046142578,85.99469757080078 116.52784729003906,85.73522186279297 117.44874572753906,85.73590087890625 118.36964416503906,85.73658752441406 119.29054260253906,85.73726654052734 120.21144104003906,85.73795318603516 121.13233947753906,85.73863220214844 122.05323791503906,85.73931121826172 122.97413635253906,85.73999786376953 123.89503479003906,85.74067687988281 124.81593322753906,85.74136352539062 125.73683166503906,85.7420425415039 126.65773010253906,85.74272918701172 127.57862854003906,85.743408203125 128.49952697753906,85.74408721923828 129.42042541503906,85.7447738647461 130.34132385253906,85.74545288085938 131.26222229003906,85.74613952636719 132.18312072753906,85.74681854248047 133.10400390625,85.74750518798828 134.02490234375,85.74818420410156 134.94580078125,85.74886322021484 135.86669921875,85.74954986572266 136.78759765625,85.75022888183594 137.70849609375,85.75091552734375 138.62939453125,85.75159454345703 139.55029296875,85.75228118896484 140.47119140625,85.75296020507812 141.39208984375,85.7536392211914 142.31298828125,85.75432586669922 143.23388671875,85.7550048828125 144.15478515625,85.75569152832031 145.07568359375,85.7563705444336 145.99658203125,85.7570571899414 146.91748046875,85.75773620605469 147.83837890625,85.7584228515625 148.75927734375,85.75910186767578 149.68017578125,85.75978088378906 150.60107421875,85.76046752929688 151.52197265625,85.76114654541016 152.44287109375,85.76183319091797 153.36376953125,85.76251220703125 154.28460693359375,85.76319885253906 155.20550537109375,85.76387786865234 156.12640380859375,85.76455688476562 157.04730224609375,85.76524353027344 157.96820068359375,85.76592254638672 158.88909912109375,85.76660919189453 159.80999755859375,85.76728820800781 160.73089599609375,85.76797485351562 161.3123779296875,85.42900085449219 161.3123779296875,84.50810241699219 161.3123779296875,83.58720397949219 161.3123779296875,82.66630554199219 161.3123779296875,81.74540710449219 161.3123779296875,80.82450866699219 161.3123779296875,79.90361022949219 161.3123779296875,78.98271179199219 161.3123779296875,78.06181335449219 161.3123779296875,77.14091491699219 161.3123779296875,76.22001647949219 161.3123779296875,75.29911804199219 161.3123779296875,74.37821960449219 161.3123779296875,73.45732116699219 161.3123779296875,72.53642272949219 161.3123779296875,71.61552429199219 161.3123779296875,70.69462585449219 161.3123779296875,69.77372741699219 161.3123779296875,68.85282897949219 161.3123779296875,67.93193054199219 161.3123779296875,67.01103210449219 161.3123779296875,66.09013366699219 161.3123779296875,65.16923522949219 161.3123779296875,64.24833679199219 161.3123779296875,63.32743453979492 161.3123779296875,62.40653610229492 161.3123779296875,61.48563766479492 161.3123779296875,60.56473922729492 161.3123779296875,59.64384078979492 161.3123779296875,58.72294235229492 161.3123779296875,57.80204391479492 161.3123779296875,56.88114547729492 161.3123779296875,55.96024703979492 161.3123779296875,55.03934860229492 161.3123779296875,54.11845016479492 161.3123779296875,53.19755172729492 161.3123779296875,52.27665328979492 161.3123779296875,51.35575485229492 161.3123779296875,50.43485641479492 161.3123779296875,49.51395797729492 161.3123779296875,48.59312057495117 161.3123779296875,47.67222213745117 161.3123779296875,46.75132369995117 161.3123779296875,45.83042526245117 161.3123779296875,44.90952682495117 161.3123779296875,43.98862838745117 161.3123779296875,43.06772994995117 161.3123779296875,42.14683151245117 161.3123779296875,41.22593307495117 161.3123779296875,40.30503463745117 161.3123779296875,39.38413619995117 161.3123779296875,38.46323776245117 161.3123779296875,37.54233932495117 161.3123779296875,36.62144088745117 161.3123779296875,35.70054244995117 161.1490478515625,34.84821319580078 160.4915771484375,34.203399658203125 159.8341064453125,33.5585823059082 159.1766357421875,32.91376495361328 158.5191650390625,32.268951416015625 157.8616943359375,31.624135971069336 157.2042236328125,30.979320526123047 156.5467529296875,30.334503173828125 155.8892822265625,29.689687728881836 155.2318115234375,29.044872283935547 154.5743408203125,28.400056838989258 153.9168701171875,27.75524139404297 153.2593994140625,27.11042594909668 152.6019287109375,26.46561050415039 151.9444580078125,25.82079315185547 151.2869873046875,25.17597770690918 150.6295166015625,24.53116226196289 149.97206115722656,23.8863468170166 149.31459045410156,23.241531372070312 148.65711975097656,22.596715927124023 147.99964904785156,21.9518985748291 147.34217834472656,21.307083129882812 146.68470764160156,20.662267684936523 146.02723693847656,20.017452239990234 145.36976623535156,19.372636795043945 144.71229553222656,18.727821350097656 144.05482482910156,18.083005905151367 143.39735412597656,17.438188552856445 142.73988342285156,16.793373107910156 142.08241271972656,16.148557662963867 141.42494201660156,15.503742218017578 140.76747131347656,14.858925819396973 140.11004638671875,14.214153289794922 139.45257568359375,13.569337844848633 138.79510498046875,12.924521446228027 138.13763427734375,12.279706001281738 137.4801788330078,11.63489055633545 136.8227081298828,10.990074157714844 136.1652374267578,10.345258712768555 135.5077667236328,9.700443267822266 134.8502960205078,9.055627822875977 134.1928253173828,8.410811424255371 133.5353546142578,7.765995979309082 132.8778839111328,7.121180057525635 132.2204132080078,6.476364612579346 131.5629425048828,5.831548690795898 130.9054718017578,5.186732769012451 130.2480010986328,4.541916847229004 129.5905303955078,3.897101402282715 128.9330596923828,3.2522857189178467 128.2755889892578,2.6074700355529785 127.61812591552734,1.9626541137695312 126.96065521240234,1.317838430404663 126.11962127685547,1.1224100589752197 125.19872283935547,1.1224100589752197 124.27782440185547,1.1224099397659302 123.35692596435547,1.1224098205566406 122.43602752685547,1.122409701347351 121.51512908935547,1.122409701347351 120.59423065185547,1.1224095821380615 119.67333221435547,1.122409462928772 118.75243377685547,1.122409462928772 117.83153533935547,1.1224093437194824 116.91063690185547,1.1224092245101929 115.98973846435547,1.1224092245101929 115.06884002685547,1.1224091053009033 114.14794158935547,1.1224089860916138 113.22704315185547,1.1224089860916138 112.30614471435547,1.1224088668823242 111.38524627685547,1.1224087476730347 110.46434783935547,1.1224087476730347 109.54344940185547,1.1224086284637451 108.62255096435547,1.1224085092544556 107.70165252685547,1.1224085092544556 106.78075408935547,1.122408390045166 105.85985565185547,1.1224082708358765 104.93895721435547,1.1224082708358765 104.01805877685547,1.122408151626587 103.09716033935547,1.1224080324172974 102.17626190185547,1.1224080324172974 101.25542449951172,1.1224079132080078 100.33452606201172,1.1224077939987183 99.41362762451172,1.1224077939987183 98.49272918701172,1.1224076747894287 97.57183074951172,1.1224075555801392 96.65093231201172,1.1224075555801392 95.73003387451172,1.1224074363708496 94.80913543701172,1.12240731716156 93.88823699951172,1.12240731716156 92.96733856201172,1.1224071979522705 92.04644012451172,1.122407078742981 91.12554168701172,1.122407078742981 90.20464324951172,1.1224069595336914 89.28374481201172,1.1224068403244019 88.36284637451172,1.1224067211151123 87.44194793701172,1.1224067211151123 86.52104949951172,1.1224066019058228 85.60015106201172,1.1224064826965332 84.67925262451172,1.1224064826965332 83.75835418701172,1.1224063634872437 82.83745574951172,1.122406244277954 81.91655731201172,1.122406244277954 80.99565887451172,1.1224061250686646 80.07476043701172,1.122406005859375 79.15386199951172,1.122406005859375 78.23296356201172,1.1224058866500854 77.31206512451172,1.122405767440796 76.39116668701172,1.122405767440796 75.47026824951172,1.1224056482315063 74.54936981201172,1.1224055290222168 73.62847137451172,1.1224055290222168 72.70757293701172,1.1224054098129272 71.78667449951172,1.1224052906036377 70.86577606201172,1.1224052906036377 69.94487762451172,1.1224051713943481 69.02397918701172,1.1224050521850586 68.10308074951172,1.1224050521850586 67.18218231201172,1.122404932975769 66.26128387451172,1.1224048137664795 65.34038543701172,1.1224048137664795 64.41948699951172,1.12240469455719 63.49858856201172,1.1224045753479004 62.57769012451172,1.1224045753479004 61.65679168701172,1.1224044561386108 60.73589324951172,1.1224043369293213 59.81499481201172,1.1224043369293213 58.89409637451172,1.1224042177200317 57.97319793701172,1.1224040985107422 57.05236053466797,1.1224040985107422 56.13146209716797,1.1224039793014526 55.21056365966797,1.122403860092163 54.28966522216797,1.122403860092163 53.36876678466797,1.1224037408828735 52.44786834716797,1.122403621673584 51.52696990966797,1.1224035024642944 50.60607147216797,1.1224035024642944 49.68517303466797,1.1224033832550049 48.76427459716797,1.1224032640457153 47.84337615966797,1.1224032640457153 46.92247772216797,1.1224031448364258 46.00157928466797,1.1224030256271362 45.08068084716797,1.1224030256271362 44.15978240966797,1.1224029064178467 43.23888397216797,1.1224027872085571 42.31798553466797,1.1224027872085571 41.39708709716797,1.1224026679992676 40.47618865966797,1.122402548789978 39.55529022216797,1.122402548789978 38.63439178466797,1.1224024295806885 37.71349334716797,1.122402310371399 36.79259490966797,1.122402310371399"
     id="polygon3" /></svg>