<?xml version="1.0" encoding="UTF-8" standalone="no"?>
<!-- Generator: Adobe Illustrator 16.0.4, SVG Export Plug-In . SVG Version: 6.00 Build 0)  -->

<svg xmlns:dc="http://purl.org/dc/elements/1.1/" 
    xmlns:cc="http://creativecommons.org/ns#" 
    xmlns:rdf="http://www.w3.org/1999/02/22-rdf-syntax-ns#" 
    xmlns:svg="http://www.w3.org/2000/svg" 
    xmlns="http://www.w3.org/2000/svg" 
    xmlns:sodipodi="http://sodipodi.sourceforge.net/DTD/sodipodi-0.dtd" 
    xmlns:inkscape="http://www.inkscape.org/namespaces/inkscape" version="1.1" id="Layer_1" x="0px" y="0px" width="1000px" height="1000px" viewBox="0 0 1000 1000" enable-background="new 0 0 1000 1000" xml:space="preserve" inkscape:version="0.91 r13725" sodipodi:docname="polygons3.svg">
    <metadata id="metadata11">
        <rdf:RDF>
            <cc:Work rdf:about="">
                <dc:format>image/svg+xml</dc:format>
                <dc:type rdf:resource="http://purl.org/dc/dcmitype/StillImage" />
            </cc:Work>
        </rdf:RDF>
    </metadata>
    <defs id="defs9" />
    <sodipodi:namedview pagecolor="#ffffff" bordercolor="#666666" borderopacity="1" objecttolerance="10" gridtolerance="10" guidetolerance="10" inkscape:pageopacity="0" inkscape:pageshadow="2" inkscape:window-width="922" inkscape:window-height="834" id="namedview7" showgrid="false" inkscape:zoom="2.6700352" inkscape:cx="35.096242" inkscape:cy="886.03509" inkscape:window-x="0" inkscape:window-y="0" inkscape:window-maximized="0" inkscape:current-layer="Layer_1" />
    <!-- <polygon fill="#45FF28" points="100,300 120.312,249.121 120.312,361.035"/> -->    <!-- <polygon fill="#45FF28" points="120.312,249.121 120.312,361.035 162.5,205.469"/> -->    <!-- <polygon fill="#45FF28" points="120.312,361.035 162.5,205.469 162.5,425.781"/> -->    <!-- <polygon fill="#45FF28" points="162.5,205.469 162.5,425.781 215.137,168.604"/> -->    <!-- <polygon fill="#45FF28" points="162.5,425.781 215.137,168.604 275,137.5"/> -->    <!-- <polygon fill="#45FF28" points="162.5,425.781 215.137,488.965 275,137.5"/> -->    <!-- <polygon fill="#45FF28" points="215.137,488.965 275,137.5 275,550"/> -->    <!-- <polygon fill="#45FF28" points="275,137.5 275,550 550,412.5"/> -->    <!-- <polygon fill="#45FF28" points="275,137.5 335.645,108.35 550,412.5"/> -->    <!-- <polygon fill="#45FF28" points="275,550 335.645,609.473 550,412.5"/> -->    <!-- <polygon fill="#45FF28" points="335.645,108.35 395.312,89.0625 550,412.5"/> -->    <!-- <polygon fill="#45FF28" points="335.645,609.473 395.312,658.594 550,412.5"/> -->    <!-- <polygon fill="#45FF28" points="395.312,89.0625 452.539,83.0078 542.188,235.938"/> -->    <!-- <polygon fill="#45FF28" points="395.312,89.0625 542.188,235.938 549.219,321.924"/> -->    <!-- <polygon fill="#45FF28" points="395.312,89.0625 549.219,321.924 550,412.5"/> -->
    <polygon points="395.0,658.678 452.539,693.262 542.0,658.678" id="polygon3" fill="#45FF28" />
    <polygon points="395.0,658.678 542.0,658.678 549.219,600.686" id="polygon5" fill="#45FF28" />
    <!-- <polygon fill="#45FF28" points="395.312,658.594 549.219,502.686 550,412.5"/> -->    <!-- <polygon fill="#45FF28" points="452.539,83.0078 500,100 527.148,157.617"/> -->    <!-- <polygon fill="#45FF28" points="452.539,83.0078 527.148,157.617 542.188,235.938"/> -->    <!-- <polygon fill="#45FF28" points="452.539,693.262 500,700 527.148,655.957"/> -->    <!-- <polygon fill="#45FF28" points="452.539,693.262 527.148,655.957 542.188,585.156"/> -->
</svg>